<?xml version="1.0" encoding="utf-8"?>
<!-- Generator: Adobe Illustrator 19.1.0, SVG Export Plug-In . SVG Version: 6.00 Build 0)  -->
<svg version="1.1" xmlns="http://www.w3.org/2000/svg" xmlns:xlink="http://www.w3.org/1999/xlink" x="0px" y="0px"
	 viewBox="0 0 500 500" style="enable-background:new 0 0 500 500;" xml:space="preserve">
<style type="text/css">
	.st0{fill:#FFFFFF;}
	.st1{fill:#0047A6;}
	.st2{fill:#FF0000;}
	.st3{fill:#002B75;}
	.st4{fill:none;stroke:#FF0000;stroke-width:2;stroke-linecap:round;stroke-linejoin:round;stroke-miterlimit:10;}
</style>
<g id="BACKGROUND">
	<rect class="st0" width="500" height="500"/>
</g>
<g id="OBJECTS">
	<g>
		<g>
			<path class="st1" d="M274.7,179.2v50.1v14.4v29c0,3.3,4.1,4.9,6.3,2.4l15.5-17h45.8c8,0,14.4-6.4,14.4-14.4v-8.2
				c-3.9,0,0.3,0-6.6,0c-16.2,0-13.8-13.8-13.8-13.8h20.4v-12.1h11.4L357.8,174c-2.2-5.5-7.5-9.2-13.4-9.2h-55.3
				C281.2,164.8,274.7,171.3,274.7,179.2z M339.7,199.9c0-2.6,2.1-4.7,4.7-4.7s4.7,2.1,4.7,4.7H339.7z"/>
			<path class="st1" d="M210.9,164.8h-55.3c-5.9,0-11.3,3.6-13.4,9.2l-10.3,35.6h11.4v12.1h20.4c0,0,2.4,13.8-13.8,13.8
				c-6.9,0-2.7,0-6.6,0v8.2c0,8,6.4,14.4,14.4,14.4h45.8l15.5,17c2.2,2.5,6.3,0.9,6.3-2.4v-27.1v-16.3v-50.1
				C225.3,171.3,218.8,164.8,210.9,164.8z M150.9,199.9c0-2.6,2.1-4.7,4.7-4.7s4.7,2.1,4.7,4.7H150.9z"/>
		</g>
		<g>
			<path class="st2" d="M278.2,135.7h-56.4c-9.1,0-16.4,7.4-16.4,16.4v59.3c0,9.1,7.4,16.4,16.4,16.4h19l6.8,17.8
				c0.9,2.3,4,2.3,4.9,0l6.8-17.8h19c9.1,0,16.4-7.4,16.4-16.4v-59.3C294.6,143.1,287.3,135.7,278.2,135.7z M235.3,167.2
				c2.6,0,4.7,2.1,4.7,4.7h-9.3C230.7,169.3,232.7,167.2,235.3,167.2z M267.9,189.1c0,6.8-5.5,12.3-12.3,12.3h-11.2
				c-6.8,0-12.3-5.5-12.3-12.3v-1.3h35.8V189.1z M260,171.8c0-2.6,2.1-4.7,4.7-4.7c2.6,0,4.7,2.1,4.7,4.7H260z"/>
			<g>
				<g>
					<path class="st2" d="M393.2,230.8h-27.8c-0.9,0-1.7-0.8-1.7-1.7l0,0c0-0.9,0.8-1.7,1.7-1.7h27.8c0.9,0,1.7,0.8,1.7,1.7l0,0
						C394.9,230,394.2,230.8,393.2,230.8z"/>
					<path class="st2" d="M392.4,216.7l-26.6,8.3c-0.9,0.3-1.9-0.2-2.1-1.1l0,0c-0.3-0.9,0.2-1.9,1.1-2.1l26.6-8.3
						c0.9-0.3,1.9,0.2,2.1,1.1l0,0C393.8,215.4,393.3,216.4,392.4,216.7z"/>
					<path class="st2" d="M392.4,241.5l-26.6-8.3c-0.9-0.3-1.9,0.2-2.1,1.1l0,0c-0.3,0.9,0.2,1.9,1.1,2.1l26.6,8.3
						c0.9,0.3,1.9-0.2,2.1-1.1l0,0C393.8,242.7,393.3,241.8,392.4,241.5z"/>
				</g>
				<g>
					<path class="st2" d="M107.8,216.6l27.1,6.2c0.9,0.2,1.8-0.4,2-1.3l0,0c0.2-0.9-0.4-1.8-1.3-2.1l-27.1-6.2
						c-0.9-0.2-1.8,0.4-2,1.3l0,0C106.3,215.4,106.9,216.4,107.8,216.6z"/>
					<path class="st2" d="M106.8,227.3h27.8c0.9,0,1.7,0.8,1.7,1.7l0,0c0,0.9-0.8,1.7-1.7,1.7h-27.8c-0.9,0-1.7-0.8-1.7-1.7l0,0
						C105.1,228.1,105.8,227.3,106.8,227.3z"/>
					<path class="st2" d="M107.8,241.5l27.1-6.2c0.9-0.2,1.8,0.4,2,1.3l0,0c0.2,0.9-0.4,1.8-1.3,2.1l-27.1,6.2
						c-0.9,0.2-1.8-0.4-2-1.3l0,0C106.3,242.7,106.9,241.7,107.8,241.5z"/>
				</g>
			</g>
		</g>
		<path class="st3" d="M287.3,105c0-2.6-2.1-4.7-4.7-4.7c-2.6,0-4.7,2.1-4.7,4.7c0,1.5,0.7,2.8,1.8,3.7h-0.1c0,0-4,8.1-13.7,6
			c-7.6-1.6-10.5-10.2-11.4-13.4c1.1-1.1,1.8-2.7,1.8-4.5c0-3.5-2.8-6.4-6.4-6.4s-6.4,2.8-6.4,6.4c0,1.7,0.7,3.3,1.8,4.5
			c-0.8,3.3-3.8,11.8-11.4,13.4c-9.7,2.1-13.7-6-13.7-6h-0.1c1.1-0.9,1.8-2.2,1.8-3.7c0-2.6-2.1-4.7-4.7-4.7c-2.6,0-4.7,2.1-4.7,4.7
			c0,1.7,0.9,3.2,2.3,4v16.5c0,1.5,1.2,2.7,2.7,2.7h64.7c1.5,0,2.7-1.2,2.7-2.7V109C286.4,108.1,287.3,106.7,287.3,105z"/>
	</g>
</g>
<g id="TEXTS">
	<g>
		<path class="st3" d="M104.2,375.9v-46.3h30.9v6.6h-22.8V349h21.4v6.6h-21.4v13.6h22.8v6.6H104.2z"/>
		<path class="st3" d="M177.7,329.6h7.9v46.3h-6.2l-25-32.4v32.4h-7.8v-46.3h6.2l24.9,32.4V329.6z"/>
		<path class="st3" d="M237.2,350.8v22.2c-2.1,1-4.7,1.9-7.7,2.5c-3,0.6-6,0.9-9.2,0.9c-4.8,0-8.9-1-12.4-2.9
			c-3.5-1.9-6.2-4.6-8.1-8.2c-1.9-3.6-2.8-7.8-2.8-12.7c0-4.9,0.9-9.1,2.8-12.6c1.9-3.6,4.5-6.3,8-8.2c3.4-1.9,7.5-2.9,12.1-2.9
			c3.3,0,6.3,0.5,9.1,1.4c2.8,1,5.2,2.3,7.1,4l-2.9,6.1c-2.2-1.7-4.3-2.9-6.4-3.6c-2.1-0.7-4.4-1.1-6.8-1.1c-4.8,0-8.4,1.4-10.8,4.3
			c-2.4,2.9-3.7,7-3.7,12.5c0,5.7,1.3,10,3.8,12.8c2.5,2.9,6.3,4.3,11.2,4.3c3,0,6-0.4,9-1.2v-11.7h-10v-6H237.2z"/>
		<path class="st3" d="M250.1,375.9v-46.3h8.4V369h21.6v6.9H250.1z"/>
		<path class="st3" d="M289.6,375.9v-46.3h8.4v46.3H289.6z"/>
		<path class="st3" d="M316.8,375c-3.1-1-5.7-2.3-7.9-4.1l2.9-6.1c2.3,1.7,4.6,2.9,7.1,3.7c2.4,0.8,5.1,1.2,8,1.2
			c3.2,0,5.7-0.6,7.4-1.7s2.6-2.7,2.6-4.7c0-1.7-0.8-3.1-2.4-4c-1.6-0.9-4.3-1.8-8-2.6c-5.8-1.3-10-2.9-12.7-4.9c-2.6-2-4-4.9-4-8.7
			c0-2.7,0.7-5.2,2.2-7.3c1.5-2.1,3.6-3.8,6.3-5c2.7-1.2,5.8-1.8,9.4-1.8c3.3,0,6.3,0.5,9.3,1.5c2.9,1,5.3,2.3,7.2,4.1l-2.8,6.1
			c-4.1-3.3-8.7-4.9-13.7-4.9c-3,0-5.4,0.6-7.1,1.9c-1.7,1.2-2.6,2.9-2.6,5c0,1.8,0.8,3.2,2.3,4.2c1.5,1,4.2,1.8,7.9,2.7
			c3.9,0.9,7,1.9,9.4,3c2.4,1.1,4.3,2.4,5.6,4.1c1.3,1.7,2,3.8,2,6.3c0,2.8-0.7,5.2-2.2,7.2c-1.5,2.1-3.6,3.7-6.4,4.8
			c-2.8,1.1-6,1.7-9.8,1.7C323.2,376.4,319.9,376,316.8,375z"/>
		<path class="st3" d="M388.2,329.6h8.3v46.3h-8.3v-20.1h-23.7v20.1h-8.3v-46.3h8.3v19.4h23.7V329.6z"/>
	</g>
	<g>
		<path class="st2" d="M160,405.7v-13.5h2V404h6.6v1.6H160z"/>
		<path class="st2" d="M181.6,405.7l-1.4-3.3h-6.8l-1.4,3.3h-2l6-13.5h1.7l6,13.5H181.6z M174,400.8h5.5l-2.8-6.4L174,400.8z"/>
		<path class="st2" d="M194.8,392.2h1.8v13.5h-1.5l-7.8-10.2v10.2h-1.8v-13.5h1.5l7.8,10.2V392.2z"/>
		<path class="st2" d="M210.9,398.5v6.4c-0.6,0.3-1.3,0.5-2.2,0.7s-1.8,0.3-2.7,0.3c-1.4,0-2.6-0.3-3.6-0.8c-1-0.6-1.8-1.3-2.3-2.4
			c-0.5-1-0.8-2.3-0.8-3.7c0-1.4,0.3-2.6,0.8-3.7c0.5-1,1.3-1.8,2.3-2.4s2.1-0.8,3.5-0.8c0.9,0,1.8,0.1,2.6,0.4
			c0.8,0.3,1.5,0.7,2.1,1.2l-0.7,1.5c-0.6-0.5-1.3-0.9-1.9-1.1c-0.6-0.2-1.3-0.3-2.1-0.3c-1.5,0-2.6,0.4-3.4,1.3
			c-0.8,0.9-1.1,2.2-1.1,3.9c0,1.8,0.4,3.1,1.2,4c0.8,0.9,1.9,1.4,3.5,1.4c1,0,2-0.2,3-0.5V400h-3.2v-1.5H210.9z"/>
		<path class="st2" d="M215.2,404.4c-0.9-0.9-1.4-2.3-1.4-4.1v-8.2h1.9v8.3c0,1.3,0.3,2.2,0.9,2.8s1.5,1,2.7,1c1.2,0,2-0.3,2.7-1
			c0.6-0.6,0.9-1.6,0.9-2.8v-8.3h1.9v8.2c0,1.8-0.5,3.2-1.4,4.1s-2.3,1.4-4.1,1.4C217.5,405.8,216.1,405.4,215.2,404.4z"/>
		<path class="st2" d="M237.7,405.7l-1.4-3.3h-6.8l-1.4,3.3h-2l6-13.5h1.7l6,13.5H237.7z M230,400.8h5.5l-2.8-6.4L230,400.8z"/>
		<path class="st2" d="M251.8,398.5v6.4c-0.6,0.3-1.3,0.5-2.2,0.7s-1.8,0.3-2.7,0.3c-1.4,0-2.6-0.3-3.6-0.8c-1-0.6-1.8-1.3-2.3-2.4
			c-0.5-1-0.8-2.3-0.8-3.7c0-1.4,0.3-2.6,0.8-3.7c0.5-1,1.3-1.8,2.3-2.4s2.1-0.8,3.5-0.8c0.9,0,1.8,0.1,2.6,0.4
			c0.8,0.3,1.5,0.7,2.1,1.2l-0.7,1.5c-0.6-0.5-1.3-0.9-1.9-1.1c-0.6-0.2-1.3-0.3-2.1-0.3c-1.5,0-2.6,0.4-3.4,1.3
			c-0.8,0.9-1.1,2.2-1.1,3.9c0,1.8,0.4,3.1,1.2,4c0.8,0.9,1.9,1.4,3.5,1.4c1,0,2-0.2,3-0.5V400h-3.2v-1.5H251.8z"/>
		<path class="st2" d="M254.9,405.7v-13.5h8.8v1.6h-6.8v4.3h6.5v1.6h-6.5v4.5h6.8v1.6H254.9z"/>
		<path class="st2" d="M273.7,405c-1-0.6-1.7-1.4-2.2-2.4c-0.5-1-0.8-2.3-0.8-3.7c0-1.4,0.3-2.6,0.8-3.7c0.5-1,1.3-1.8,2.2-2.4
			s2.1-0.8,3.4-0.8c0.9,0,1.8,0.1,2.6,0.4c0.8,0.3,1.5,0.7,2,1.2l-0.7,1.4c-0.6-0.5-1.3-0.9-1.9-1.1c-0.6-0.2-1.3-0.4-2-0.4
			c-1.4,0-2.5,0.5-3.3,1.4s-1.1,2.2-1.1,3.9c0,1.7,0.4,3,1.1,3.9s1.9,1.4,3.3,1.4c0.7,0,1.4-0.1,2-0.4c0.6-0.2,1.2-0.6,1.9-1.1
			l0.7,1.4c-0.5,0.5-1.2,1-2,1.2c-0.8,0.3-1.7,0.4-2.6,0.4C275.9,405.8,274.7,405.6,273.7,405z"/>
		<path class="st2" d="M284.1,405.7v-13.5h8.8v1.6H286v4.3h6.5v1.6H286v4.5h6.8v1.6H284.1z"/>
		<path class="st2" d="M304.6,392.2h1.8v13.5H305l-7.8-10.2v10.2h-1.8v-13.5h1.5l7.8,10.2V392.2z"/>
		<path class="st2" d="M313,405.7v-11.9h-4.6v-1.6h11.1v1.6H315v11.9H313z"/>
		<path class="st2" d="M321.6,405.7v-13.5h8.8v1.6h-6.8v4.3h6.5v1.6h-6.5v4.5h6.8v1.6H321.6z"/>
		<path class="st2" d="M343.7,405.7h-2.1l-1.7-4.5c-0.2-0.5-0.4-0.8-0.8-1c-0.3-0.2-0.8-0.3-1.4-0.3h-3v5.8h-1.9v-13.5h5.6
			c1.5,0,2.6,0.3,3.4,1c0.8,0.7,1.2,1.6,1.2,2.8c0,0.9-0.2,1.6-0.7,2.3c-0.5,0.6-1.1,1.1-2,1.3c0.8,0.1,1.4,0.7,1.7,1.7L343.7,405.7
			z M338.2,398.3c1,0,1.7-0.2,2.2-0.6c0.5-0.4,0.7-1,0.7-1.7s-0.2-1.3-0.7-1.7c-0.5-0.4-1.2-0.6-2.2-0.6h-3.4v4.6H338.2z"/>
	</g>
	<g>
		<line class="st4" x1="135.8" y1="399.1" x2="79.9" y2="399.1"/>
		<line class="st4" x1="420.1" y1="399.1" x2="364.2" y2="399.1"/>
	</g>
</g>
</svg>
